Coordinates
version=1
nRows=10
nColumns=40
inDegrees=yes

Units are S.I. units (second, meters, Newtons, ...)
If the header above contains a line with 'inDegrees', this indicates whether rotational values are in degrees (yes) or radians (no).

endheader
time	pelvis_tilt	pelvis_list	pelvis_rotation	pelvis_tx	pelvis_ty	pelvis_tz	hip_flexion_r	hip_adduction_r	hip_rotation_r	knee_angle_r	knee_angle_r_beta	ankle_angle_r	subtalar_angle_r	mtp_angle_r	hip_flexion_l	hip_adduction_l	hip_rotation_l	knee_angle_l	knee_angle_l_beta	ankle_angle_l	subtalar_angle_l	mtp_angle_l	lumbar_extension	lumbar_bending	lumbar_rotation	arm_flex_r	arm_add_r	arm_rot_r	elbow_flex_r	pro_sup_r	wrist_flex_r	wrist_dev_r	arm_flex_l	arm_add_l	arm_rot_l	elbow_flex_l	pro_sup_l	wrist_flex_l	wrist_dev_l
      3.35000000	    -31.22635403	     -3.45676909	      1.75665177	     -0.32266020	      0.69454977	     -0.98493367	     29.80435050	     -6.45267408	      6.58180059	     88.38627968	      1.54263159	    -25.46824854	      0.00000000	      0.00000000	     86.39303726	     -4.16392946	     -4.20113632	     93.61934588	      1.63396583	     23.55332493	      0.00000000	      0.00000000	    -14.38262097	    -11.02385488	      8.10832207	     76.05983672	     -5.56558524	     27.39668939	     86.19985110	      3.22166961	      0.00000000	      0.00000000	     83.17147675	    -15.44012470	     34.76998389	     82.13654205	     69.81321403	      0.00000000	      0.00000000
      3.35500000	    -31.09240295	     -3.31294842	      1.66467950	     -0.32247394	      0.69486898	     -0.98473489	     29.61869898	     -6.67476400	      6.60241309	     88.37297863	      1.54239945	    -25.75429975	      0.00000000	      0.00000000	     86.18630734	     -4.27655053	     -4.37759238	     93.60528852	      1.63372048	     23.47754401	      0.00000000	      0.00000000	    -14.55418710	    -11.23485523	      8.05124276	     76.18767392	     -5.50164162	     27.46770013	     85.87616423	      4.15626677	      0.00000000	      0.00000000	     83.43308242	    -15.62379712	     35.21413655	     82.05904933	     69.22114469	      0.00000000	      0.00000000
      3.36000000	    -31.29800767	     -3.47673708	      1.58233737	     -0.32243119	      0.69456819	     -0.98463584	     29.72029975	     -6.55665115	      6.49985824	     88.33245701	      1.54169221	    -25.30236825	      0.00000000	      0.00000000	     86.48046305	     -4.37297819	     -4.16907990	     93.68791530	      1.63516259	     23.33869872	      0.00000000	      0.00000000	    -14.30428611	    -11.10601924	      8.13187793	     76.03169505	     -5.53344173	     27.38837617	     86.22759388	      2.97143913	      0.00000000	      0.00000000	     83.23012961	    -15.52352475	     34.85036698	     82.16942919	     70.38526728	      0.00000000	      0.00000000
      3.36500000	    -31.32799613	     -3.49234463	      1.56380489	     -0.32235322	      0.69465460	     -0.98469836	     29.65478559	     -6.68105672	      6.37251341	     88.21861835	      1.53970535	    -25.38350824	      0.00000000	      0.00000000	     86.50902666	     -4.37577680	     -4.12721603	     93.68510079	      1.63511347	     23.32188816	      0.00000000	      0.00000000	    -14.29108004	    -11.12680173	      8.05443371	     76.02890180	     -5.47819731	     27.33789962	     86.28488377	      3.06563567	      0.00000000	      0.00000000	     83.29483215	    -15.54594142	     34.54257849	     81.95986820	     75.54865610	      0.00000000	      0.00000000
      3.37000000	    -31.39532475	     -3.51000516	      1.53056498	     -0.32228028	      0.69464916	     -0.98470755	     29.62212483	     -6.81363456	      6.26637048	     88.09444829	      1.53753818	    -25.43008300	      0.00000000	      0.00000000	     86.56376122	     -4.41597507	     -4.11429315	     93.66510005	      1.63476439	     23.33148258	      0.00000000	      0.00000000	    -14.23167327	    -11.13995563	      8.04173862	     76.03988442	     -5.47020436	     27.34460666	     86.28821202	      3.09948984	      0.00000000	      0.00000000	     83.30007805	    -15.55369277	     34.69137123	     82.06150259	     73.74109129	      0.00000000	      0.00000000
      3.37500000	    -31.48390099	     -3.64624058	      1.53291619	     -0.32231221	      0.69451838	     -0.98467111	     29.59933453	     -6.79404697	      6.09335215	     87.99756494	      1.53584724	    -25.45391174	      0.00000000	      0.00000000	     86.71241820	     -4.49404471	     -4.02746302	     93.69984937	      1.63537088	     23.21776846	      0.00000000	      0.00000000	    -14.12556163	    -11.03030095	      8.01151118	     76.03954517	     -5.50323747	     27.34626813	     86.26505515	      3.02151765	      0.00000000	      0.00000000	     83.30823778	    -15.55087727	     34.86484265	     82.14463087	     72.10783951	      0.00000000	      0.00000000
      3.38000000	    -31.53426181	     -3.69898402	      1.49605617	     -0.32229689	      0.69448030	     -0.98468834	     29.58620626	     -6.84675788	      5.97711437	     87.93944323	      1.53483283	    -25.57062250	      0.00000000	      0.00000000	     86.78932308	     -4.49075289	     -3.89408496	     93.72969300	      1.63589175	     23.20564522	      0.00000000	      0.00000000	    -14.07439187	    -10.99486029	      7.96693279	     76.01914842	     -5.44605889	     27.28496919	     86.26632991	      3.10858235	      0.00000000	      0.00000000	     83.33590428	    -15.60060440	     34.60539366	     82.03189908	     75.61259763	      0.00000000	      0.00000000
      3.38500000	    -31.56736245	     -3.73912172	      1.53657855	     -0.32223482	      0.69452272	     -0.98486968	     29.49209731	     -6.97021265	      5.82123353	     87.79374211	      1.53228986	    -25.73349069	      0.00000000	      0.00000000	     86.82324634	     -4.44995227	     -3.86370665	     93.71900238	      1.63570516	     23.18623223	      0.00000000	      0.00000000	    -14.06126176	    -10.96324834	      7.83660032	     76.01607306	     -5.40074164	     27.24674275	     86.27266397	      3.12097493	      0.00000000	      0.00000000	     83.35741222	    -15.67442634	     34.81725792	     82.21125407	     73.21375913	      0.00000000	      0.00000000
      3.39000000	    -31.56979765	     -3.74810807	      1.49064416	     -0.32211298	      0.69465907	     -0.98485364	     29.39807058	     -7.08958609	      5.71053188	     87.70134893	      1.53067730	    -25.67283295	      0.00000000	      0.00000000	     86.81014136	     -4.51039807	     -3.87072427	     93.71239962	      1.63558992	     23.17509405	      0.00000000	      0.00000000	    -14.06447678	    -10.99448795	      7.83931188	     76.02777625	     -5.43963023	     27.23211730	     86.29707492	      3.11242775	      0.00000000	      0.00000000	     83.40957560	    -15.61462680	     34.63061652	     82.05055179	     75.71221027	      0.00000000	      0.00000000
      3.39500000	    -31.60341685	     -3.74962482	      1.46326766	     -0.32206666	      0.69469888	     -0.98482308	     29.35358568	     -7.12996495	      5.71643137	     87.65635947	      1.52989208	    -25.65539724	      0.00000000	      0.00000000	     86.82837527	     -4.54818562	     -3.88949536	     93.70918669	      1.63553385	     23.21981213	      0.00000000	      0.00000000	    -14.03696816	    -11.03025625	      7.78691889	     76.02152283	     -5.44553569	     27.22341158	     86.28797364	      3.15045016	      0.00000000	      0.00000000	     83.44315801	    -15.65048704	     34.81683251	     82.19855676	     72.92323435	      0.00000000	      0.00000000
